<svg width="18" height="24" viewBox="0 0 18 24" fill="none" xmlns="http://www.w3.org/2000/svg">
<path d="M17.7644 18.4861C17.6917 18.4041 17.6288 18.3335 17.6082 18.225C17.4439 17.3579 17.5279 16.3021 17.609 15.281C17.6544 14.7112 17.6972 14.1732 17.6974 13.6778C17.6974 13.2525 17.6995 12.8196 17.7011 12.4011C17.7047 11.5277 17.7084 10.6245 17.6982 9.7574C17.6823 8.39456 17.4228 7.31359 17.1107 6.14198C16.9049 5.36967 16.254 4.47678 15.3248 3.69265C14.428 2.93558 13.4172 2.41045 12.6216 2.28778C12.3478 2.24548 11.9829 2.22972 11.597 2.21265C10.69 2.17298 9.5613 2.1236 9.08772 1.6941C9.07025 1.67807 9.05513 1.66546 9.04287 1.65469C9.03948 1.6518 9.03609 1.64891 9.0327 1.64602C9.03687 1.64235 9.04131 1.63867 9.04574 1.63499C9.05747 1.62501 9.07156 1.61345 9.08772 1.59926C9.16935 1.52755 9.24498 1.47527 9.31174 1.4293C9.52323 1.28325 9.66301 1.18684 9.65179 0.732909C9.63849 0.192553 9.30835 0 9.00375 0C8.74662 0 8.47567 0.128456 8.29677 0.334931C8.13274 0.524594 8.06051 0.763381 8.09363 1.00768C8.11162 1.14061 8.18777 1.25067 8.25453 1.34761C8.30486 1.42037 8.35232 1.4892 8.34841 1.53569C8.31034 1.98726 7.6031 2.03192 7.03485 2.06764C6.82805 2.08078 6.63273 2.09286 6.48617 2.12333C5.97478 2.22894 4.52431 2.5791 4.13366 2.7798C3.70181 3.00177 3.20085 3.35746 2.79377 3.73153C2.44119 4.05543 1.99134 4.54719 1.85026 5.0505L1.82627 5.1364C1.8054 5.11775 1.78324 5.11407 1.76916 5.11407C1.6977 5.11407 1.6432 5.1984 1.584 5.30058C1.57644 5.31372 1.56835 5.32738 1.56496 5.33237L1.56001 5.3392C1.43405 5.51599 1.26168 5.75793 1.17353 5.95521C0.50541 7.44835 0.545049 9.925 0.576603 11.9149C0.583644 12.3525 0.590164 12.766 0.588078 13.1317C0.587034 13.3421 0.538529 13.5922 0.491849 13.8338C0.44204 14.0908 0.390666 14.3561 0.390927 14.5907C0.390927 14.9542 0.433174 15.4468 0.477767 15.9682C0.567997 17.025 0.670224 18.2229 0.477246 18.8476C0.464728 18.8878 0.403966 18.9471 0.339553 19.0099C0.142402 19.2019 -0.187486 19.5235 0.135883 20.0426L0.151269 20.0672H1.29975C1.05514 20.2884 0.859551 20.6094 0.741939 20.9869C0.610766 21.408 0.592511 21.8625 0.692129 22.2339C0.839471 22.7827 1.2176 23.115 1.75742 23.1694C1.84113 23.1778 1.92328 23.182 2.00151 23.182C2.72648 23.182 3.07671 22.8268 3.24283 22.5287C3.55786 21.9636 3.48849 21.0789 3.07932 20.347L4.55065 20.4287C4.42991 21.0368 4.6148 21.4335 4.795 21.6613C5.03962 21.9702 5.42609 22.1546 5.829 22.1546C6.1834 22.1546 6.50495 22.0085 6.71122 21.754C6.87969 21.5457 7.05259 21.1666 6.94071 20.5319L11.5151 21.0631C11.4757 21.1879 11.4053 21.2922 11.3315 21.402C11.2353 21.5446 11.1359 21.6923 11.0991 21.8953C10.9771 22.567 11.0605 23.1392 11.3346 23.5064C11.5414 23.7838 11.851 23.9454 12.2547 23.9866C12.3423 23.9955 12.4283 24 12.5105 24C13.0706 24 13.5127 23.7888 13.7883 23.3895C14.1537 22.8607 14.2071 22.0345 13.9354 21.2094C13.9523 21.2121 13.9703 21.2134 13.9894 21.2134C14.1889 21.2134 14.4786 21.0628 14.6703 20.9633C14.7031 20.9462 14.7381 20.9281 14.7675 20.9134C14.6992 21.278 14.7868 21.6402 15.0187 21.9423C15.2792 22.282 15.6787 22.4848 16.0876 22.4848C16.3455 22.4848 16.5974 22.402 16.8157 22.2455C17.3394 21.8701 17.7071 21.1248 17.3967 20.4271C17.3451 20.3108 17.2585 20.2317 17.1751 20.1553C17.0791 20.0672 16.9951 19.9903 16.9766 19.8697C17.0272 19.8534 17.0882 19.8358 17.1521 19.8177C17.493 19.7205 17.917 19.5999 17.9681 19.3427C18.0701 18.8313 17.9081 18.6479 17.7644 18.4861ZM4.93921 20.5351L5.28527 20.5283C5.32726 21.0839 5.52232 21.1451 5.60603 21.1451C5.80344 21.1451 5.97712 20.8516 6.02719 20.4411L6.55345 20.4442C6.6841 20.8984 6.56075 21.2026 6.43193 21.3794C6.25277 21.6253 5.94792 21.7782 5.63628 21.7782C5.38333 21.7782 5.16948 21.6794 5.03466 21.5005C4.86593 21.2764 4.83334 20.9431 4.93921 20.5351ZM2.03567 22.6886C1.77828 22.6886 1.51959 22.5972 1.26611 22.4173C0.811046 22.0939 0.736462 21.6775 1.02384 21.0671C1.06844 20.972 1.37955 20.5419 1.48934 20.5086L1.67397 21.9833L1.72248 21.9807C2.44275 21.941 2.42215 21.1254 2.40833 20.5858C2.40703 20.5388 2.40598 20.4933 2.4052 20.45C2.97918 20.6339 3.27726 21.0581 3.20502 21.5961C3.13278 22.1333 2.67563 22.6886 2.03567 22.6886ZM8.7607 0.297892C8.77374 0.296053 8.78704 0.295265 8.80008 0.295265C9.02931 0.295265 9.20377 0.56321 9.22281 0.813555C9.22959 0.903658 9.2262 1.2005 8.89475 1.25488C8.61727 1.247 8.45794 0.996125 8.44412 0.751034C8.43342 0.56321 8.50983 0.331779 8.7607 0.297892ZM8.95551 2.11493C8.87336 2.26703 8.80765 2.43515 8.81051 2.63322L8.21385 2.55835L8.35832 2.14881L8.95551 2.11493ZM12.2664 21.2528C12.2901 21.1107 12.3843 21.0952 12.4236 21.0952C12.4656 21.0952 12.5074 21.1114 12.5306 21.1364C12.5506 21.2557 12.4307 22.1328 12.3436 22.4428C12.215 22.1396 12.2208 21.526 12.2664 21.2528ZM3.75918 17.7679L3.761 17.7372C3.76205 17.7196 3.76361 17.7025 3.76518 17.6867C3.77117 17.6232 3.77639 17.568 3.74145 17.5291C3.72163 17.5071 3.6932 17.496 3.65669 17.496C3.63296 17.496 3.60427 17.5008 3.56907 17.5105C3.45667 17.5415 3.1938 17.671 2.86105 17.8352C2.34992 18.0873 1.64972 18.4325 1.42701 18.4325C1.41971 18.4325 1.41371 18.432 1.40902 18.4315L1.42049 11.8734C1.43197 11.8248 1.45961 11.8101 1.52715 11.7851C1.90215 11.6462 2.41824 11.5679 2.91764 11.4922C3.24961 11.4418 3.56438 11.3942 3.83767 11.3301L3.83142 17.7185L3.84732 17.734C3.9678 17.8512 4.08542 17.9056 4.21737 17.9056C4.33655 17.9056 4.4526 17.8601 4.57542 17.812C4.72094 17.755 4.88601 17.6904 5.08838 17.6904C5.0962 17.6904 5.10429 17.6904 5.11237 17.6907C5.83604 17.7085 6.59883 17.7913 7.33684 17.8711C8.07276 17.9507 8.83346 18.0332 9.55504 18.0514C9.56626 18.0516 9.57747 18.0519 9.58895 18.0519C9.7269 18.0519 9.87189 18.0319 10.0252 18.0109C10.1911 17.988 10.3627 17.9644 10.5395 17.9644C10.5716 17.9644 10.6031 17.9652 10.6336 17.9668C10.9398 17.9825 11.2582 18.0477 11.5659 18.1107C11.9357 18.1864 12.318 18.2647 12.7003 18.2647C12.7958 18.2647 12.8894 18.2597 12.9788 18.25C12.9773 18.4302 12.9559 18.6119 12.9353 18.7885C12.8873 19.1993 12.8375 19.6241 13.0352 20.042L13.0425 20.0578C13.0333 20.0578 13.0242 20.0578 13.0151 20.0578C12.9444 20.0578 12.8745 20.0557 12.808 20.0518C12.0572 20.0076 11.2887 19.9178 10.5455 19.8311C9.48229 19.7068 8.38257 19.5784 7.30241 19.5784C7.05076 19.5784 6.80406 19.5855 6.5691 19.5994C5.01745 19.2579 3.39539 19.2471 1.82679 19.2369C1.64398 19.2356 1.46117 19.2345 1.27863 19.2327L1.57487 18.8297L3.75918 17.7679ZM1.49377 11.3853C1.49247 11.292 1.54749 11.2742 1.65911 11.2377C1.67058 11.234 1.68206 11.2303 1.69379 11.2261C1.92849 11.1473 3.50726 10.8465 3.89452 10.8465C3.90913 10.8465 3.9206 10.847 3.92895 10.8476V11.0346L1.49377 11.3853ZM8.36771 4.02023C8.29964 4.03573 8.2175 4.04308 8.11814 4.04308C7.93429 4.04308 7.71471 4.01681 7.50243 3.99107C7.28312 3.9648 7.0565 3.93748 6.85935 3.93748C6.62308 3.93748 6.458 3.97715 6.35135 4.06121C6.7047 3.71472 7.3371 3.25002 7.63622 3.16674C7.66308 3.15912 7.69046 3.15571 7.71941 3.15571C7.81068 3.15571 7.90352 3.19249 8.00183 3.23163C8.11214 3.2755 8.22636 3.32094 8.35362 3.32094C8.38492 3.32094 8.41543 3.31832 8.44542 3.3128L8.36771 4.02023ZM6.27676 4.13949C6.17871 4.27898 6.17949 4.48493 6.27885 4.76942L6.2911 4.80462L11.0553 4.79989L11.0686 4.7907C11.3124 4.62205 11.3659 4.36593 11.3109 4.18704C11.2572 4.01287 11.1062 3.90438 10.9168 3.90438C10.8563 3.90438 10.7919 3.91515 10.7252 3.93643C10.6522 3.95981 10.5987 4.01839 10.5518 4.0704C10.5158 4.11007 10.4787 4.15105 10.4477 4.15578C10.4472 4.15578 10.4417 4.15656 10.4229 4.15656C10.1898 4.15656 9.28018 4.0662 9.10546 4.0218L9.11276 3.31175C9.11615 3.31175 9.11954 3.31175 9.12293 3.31175C9.30652 3.31175 9.40301 3.17357 9.48072 3.06272C9.53157 2.99021 9.57539 2.92743 9.62624 2.92743C9.79679 2.93321 10.5525 3.23478 10.7364 3.33854C11.9581 4.02679 12.6354 5.66205 12.8698 6.33296C13.0537 6.85913 13.0513 7.2353 13.0482 7.67085C13.0466 7.89466 13.0451 8.12609 13.0699 8.39509C13.292 10.8226 13.2008 13.376 13.0693 15.7738C13.0568 16.0021 13.0618 16.2348 13.0665 16.4597C13.0756 16.8934 13.0852 17.3413 12.9682 17.7658C12.7063 17.8549 12.4252 17.8982 12.1099 17.8982C11.617 17.8982 11.1124 17.791 10.6242 17.6875C10.2508 17.6085 9.89823 17.5336 9.54879 17.5021C9.30808 17.4805 9.04131 17.47 8.73384 17.47C8.411 17.47 8.0772 17.4816 7.75461 17.4926C7.43333 17.5036 7.10109 17.5152 6.78111 17.5152C6.60117 17.5152 6.43923 17.5118 6.28667 17.5044C6.11117 17.496 5.92549 17.4635 5.72886 17.429C5.49624 17.3883 5.2558 17.346 5.02788 17.346C4.89253 17.346 4.77336 17.3607 4.66513 17.3909C4.65887 17.2806 4.63775 17.174 4.61715 17.0699C4.59837 16.9746 4.57881 16.8761 4.57177 16.7781C4.51857 16.0294 4.58899 15.2463 4.65705 14.489C4.70529 13.9526 4.7551 13.398 4.76006 12.8629C4.76553 12.2651 4.74937 11.6735 4.73346 11.1013C4.66748 8.71137 4.60541 6.45406 6.15498 4.28055C6.18705 4.23563 6.23139 4.18388 6.28485 4.12793C6.28198 4.13187 6.27963 4.13555 6.27676 4.13949ZM15.0852 11.1686C15.5804 11.016 16.1419 10.8428 16.521 10.8428C16.6131 10.8428 16.6916 10.8531 16.7544 10.8736C16.8381 10.9006 16.8791 10.9569 16.8744 11.0372L14.1711 11.653L14.1777 11.4108C14.4147 11.3756 14.7409 11.2747 15.0852 11.1686ZM14.9796 4.69245C16.2926 6.1567 16.5849 7.48723 16.6874 9.58009C16.6887 9.60872 16.6908 9.64077 16.6929 9.67518C16.7083 9.92973 16.7341 10.3521 16.5883 10.4919L14.2121 10.9306C14.2131 10.6492 14.1521 10.3682 14.0932 10.0957C14.0467 9.88087 14.0027 9.67781 13.9888 9.48026C13.9667 9.16398 13.9508 8.84954 13.9354 8.54561C13.8686 7.22138 13.8055 5.97045 13.243 4.64964L13.2409 4.64438L12.2416 3.22375C13.3291 3.42707 14.3213 3.95823 14.9796 4.69245ZM13.8905 19.964L13.9842 18.245L16.5758 18.3351L16.5907 18.3238C16.6556 18.2741 16.6814 18.2232 16.6679 18.1725C16.6457 18.0905 16.5276 18.0592 16.4321 18.0477C16.3145 18.0332 15.994 18.0169 15.6226 17.9983C15.0729 17.9704 14.2603 17.9292 14.0851 17.8853C14.1138 17.6944 14.0733 17.5081 14.0342 17.3276C14.0063 17.1989 13.98 17.0776 13.98 16.9609C13.9789 15.705 14.0418 14.4181 14.167 13.1364C14.1844 12.9575 14.1771 12.7747 14.1701 12.5976C14.1628 12.4156 14.1552 12.2278 14.1756 12.047L16.6037 11.421L16.7696 13.1396C16.5106 14.5809 16.6212 16.0549 16.7284 17.4808C16.7471 17.7314 16.7667 17.9904 16.7836 18.245C16.7909 18.3548 16.7628 18.4359 16.738 18.5077C16.6845 18.6619 16.6647 18.7669 16.9216 18.8922C16.7607 19.0498 16.5304 19.1825 16.2042 19.3068C15.009 19.7612 14.0121 20.0116 13.2355 20.0523L13.8905 19.964ZM13.4876 7.03618C13.4923 7.24765 13.4973 7.46647 13.5223 7.66822C13.8243 10.1091 13.7356 12.352 13.6415 14.7265C13.6303 15.011 13.6188 15.2978 13.6081 15.5873C13.5831 16.2603 13.5956 16.9467 13.6081 17.6108C13.6196 18.2334 13.6316 18.8773 13.612 19.5075C13.5828 19.6677 13.5249 19.6961 13.4154 19.6961C13.3982 19.6961 13.3786 19.6953 13.357 19.6934C13.3885 18.9936 13.406 18.2833 13.4227 17.5958C13.4287 17.3531 13.4344 17.1101 13.4409 16.8671C13.4589 16.1986 13.4876 15.5019 13.5155 14.8281C13.6423 11.7533 13.7734 8.57372 13.0584 5.66756C12.6367 3.9535 10.7713 2.81395 9.19699 2.47009C9.21394 2.39417 9.27757 2.31457 9.50654 2.31457C9.88806 2.31457 10.5009 2.54784 10.7719 2.67131C11.8611 3.16753 13.1549 5.02791 13.4107 6.14619C13.4743 6.42385 13.4808 6.73514 13.4876 7.03618ZM6.92819 3.14126C6.83614 3.20247 6.74095 3.26578 6.66037 3.33749C5.78362 4.11427 5.17887 5.01057 4.81195 6.07763C4.50241 6.97708 4.34776 8.03546 4.32507 9.40881C4.32012 9.70723 4.36237 10.0356 4.40305 10.3535C4.44086 10.6471 4.47972 10.9505 4.47894 11.2188C4.47711 11.8589 4.43226 12.4939 4.38453 13.1658C4.33264 13.8979 4.27918 14.655 4.287 15.415C4.28935 15.6338 4.31151 15.8595 4.3329 16.0775C4.37932 16.549 4.4273 17.0355 4.28517 17.5147C4.02804 17.0127 4.09611 16.4106 4.16209 15.8269C4.18921 15.5857 4.21502 15.358 4.21763 15.1413C4.22754 14.3056 4.19442 13.4595 4.16235 12.6412C4.14514 12.2015 4.1274 11.747 4.11671 11.3012C4.11593 11.271 4.13757 11.2508 4.19103 11.2085C4.29743 11.1244 4.45807 10.9976 4.293 10.5865C3.99623 9.84751 3.97406 8.66697 4.23145 7.34774C4.47893 6.08025 4.9426 4.91574 5.47173 4.23248C5.58726 4.08327 6.4833 3.11 6.5485 3.06245C6.65959 2.98943 6.88099 2.94608 7.20697 2.93295C7.12613 3.00887 7.02599 3.07611 6.92819 3.14126ZM17.4194 11.3099C17.4181 11.5337 17.3699 11.7783 17.3232 12.015C17.2802 12.2335 17.2356 12.4597 17.2278 12.6704C17.1999 13.4185 17.2421 14.2003 17.2833 14.9563C17.3295 15.808 17.3774 16.6885 17.3214 17.5031C17.319 17.5354 17.3172 17.5722 17.3149 17.6119C17.2971 17.9284 17.2643 18.5176 17.0095 18.5176C16.9985 18.5176 16.9871 18.5166 16.9753 18.5145C16.9844 18.0858 16.9993 17.6523 17.0137 17.2328C17.04 16.4573 17.0674 15.6553 17.0603 14.8599L17.0564 14.4467C17.0494 13.717 17.0421 12.9625 17.0465 12.2207C17.047 12.1122 17.027 12.0039 17.0053 11.8894C16.9764 11.7344 16.9461 11.5742 16.9678 11.4019C16.9769 11.3278 17.0071 11.3125 17.0569 11.2873C17.0989 11.266 17.1513 11.2395 17.1806 11.1717C17.3488 10.7824 17.1101 10.6217 16.9675 10.5255C16.9349 10.5034 16.8853 10.4701 16.8807 10.4554C16.8102 10.1956 16.8619 9.73271 16.9117 9.28509C16.9545 8.90208 16.9985 8.50621 16.9725 8.20674C16.9159 7.55132 16.2769 5.81992 15.9184 5.22729C15.2062 4.05044 14.2405 3.54029 12.9131 3.09897C12.698 3.02752 12.4646 2.97314 12.2387 2.9206C11.7944 2.8171 11.3364 2.71071 11.0003 2.46851C11.0478 2.4672 11.0955 2.46641 11.1429 2.46641C12.5212 2.46641 14.0658 3.06876 15.3809 4.119C17.1847 5.55986 17.4322 9.24253 17.4194 11.3099ZM9.63537 4.46838L7.86779 4.39509L8.62849 4.27714L8.63475 4.23984C8.659 4.09588 8.65457 3.94956 8.64987 3.80824C8.64726 3.7268 8.64466 3.64248 8.64779 3.56078C8.64883 3.53083 8.64596 3.49642 8.64257 3.46017C8.63735 3.40264 8.62979 3.31543 8.6517 3.291C8.65352 3.28916 8.65796 3.28417 8.67439 3.28417C8.68482 3.28417 8.69786 3.28627 8.71246 3.29021C8.73802 3.32462 8.72993 3.50903 8.72446 3.63171C8.71063 3.93906 8.69525 4.28738 8.88953 4.38248L8.90022 4.38773H9.96682L9.63537 4.46838ZM1.6904 19.5082C1.85026 19.5082 1.99108 19.5124 2.12069 19.5211C5.16244 19.7257 8.50723 19.994 12.3459 20.341C12.5439 20.3588 13.3559 20.4668 13.5108 20.5149L13.52 20.7881C13.4188 20.7996 13.3155 20.8054 13.2057 20.8054C12.8672 20.8054 12.5264 20.7497 12.1965 20.6959C11.954 20.6562 11.7034 20.6152 11.4543 20.5966C7.7387 20.3158 4.86333 20.0919 2.13086 19.8702C1.91989 19.8532 1.70396 19.8161 1.49508 19.7807C1.19961 19.7302 0.894235 19.6779 0.587817 19.6779C0.528359 19.6779 0.469683 19.68 0.412833 19.684V19.523C0.494457 19.5258 0.580515 19.5272 0.674396 19.5272C0.843904 19.5272 1.01654 19.5224 1.18344 19.518C1.34982 19.5135 1.52194 19.5082 1.6904 19.5082ZM1.86121 21.6061V20.0667H2.02942C2.04115 20.5209 2.00986 21.0064 1.93606 21.5105C1.93006 21.5522 1.9298 21.583 1.92954 21.6056C1.92954 21.6071 1.92954 21.6085 1.92954 21.61C1.91363 21.61 1.89146 21.6082 1.86121 21.6061ZM11.3803 21.9113C11.4817 21.6707 11.6609 21.4818 11.889 21.372C11.8737 21.8903 11.8883 22.4979 12.1107 22.7294C12.1699 22.7911 12.2406 22.8224 12.3209 22.8224C12.359 22.8224 12.3996 22.815 12.4416 22.8006C12.5509 22.763 12.759 22.3222 12.7851 22.2397C12.8234 22.1186 12.8378 21.962 12.8526 21.7963C12.887 21.4159 12.9264 21.1466 13.1184 21.1466C13.1583 21.1466 13.2049 21.1574 13.2576 21.179C13.3038 21.2149 13.6034 21.5218 13.624 21.5475C14.0008 22.0524 13.9244 22.4719 13.794 22.7349C13.5669 23.193 12.9937 23.5256 12.4309 23.5256C12.1464 23.5256 11.6324 23.4368 11.3834 22.8413C11.2582 22.5421 11.2572 22.2032 11.3803 21.9113ZM13.9276 20.7875C13.9195 20.7875 13.9111 20.7875 13.9031 20.787L13.9456 20.4061L17.5952 18.9965C17.5991 19.0903 17.6022 19.1788 17.5579 19.2566C17.4789 19.3362 16.4691 19.8329 16.2665 19.9188C16.2097 19.943 16.1468 19.9698 16.079 19.9984C15.5061 20.2422 14.64 20.6105 14.1949 20.7413C14.1172 20.7642 14.0243 20.7875 13.9276 20.7875ZM15.993 20.9601L15.8897 21.0177L15.9012 20.3415L16.1291 20.2724L15.993 20.9601ZM15.511 20.5695C15.5165 20.8191 15.5671 21.0778 15.6563 21.3082C15.6618 21.3224 15.6659 21.3429 15.6704 21.3644C15.6837 21.4301 15.7056 21.5396 15.8159 21.5396C15.8412 21.5396 15.8686 21.5333 15.8996 21.5205C16.254 21.3741 16.362 20.5254 16.3458 20.1671C16.8335 20.2532 17.0476 20.6349 17.0825 20.9459C17.1198 21.2793 16.9766 21.7356 16.4511 21.9237C16.2644 21.9904 16.0834 22.0243 15.9134 22.0243C15.5006 22.0243 15.1738 21.8176 15.081 21.4976C14.9889 21.18 15.1527 20.8306 15.511 20.5695ZM1.85913 5.21889L1.86591 5.19892L1.8573 5.17975C1.856 5.17686 1.85469 5.17397 1.85313 5.17134L1.93345 5.10462C2.1791 4.90103 2.40598 4.67354 2.62556 4.45367C2.93276 4.14606 3.25039 3.82767 3.61992 3.57523C4.18764 3.18723 5.48503 2.5531 6.11377 2.47271C6.22852 2.458 6.35787 2.45091 6.50886 2.45091C6.67758 2.45091 6.8557 2.45984 7.02781 2.46851C7.20175 2.47718 7.38143 2.48611 7.55381 2.48611C7.64613 2.48611 7.72984 2.48348 7.80781 2.47849L7.77417 2.65633C7.45393 2.70887 7.12456 2.73173 6.80563 2.75406C6.34196 2.78637 5.86238 2.81999 5.39689 2.94372C4.94313 3.06456 3.88853 3.48933 3.54273 3.74572C3.31168 3.91699 2.75074 4.48151 2.79742 4.79779L2.81228 4.89788L2.88504 4.82827C3.66843 4.07881 4.61011 3.58521 5.76015 3.32173L4.42495 5.21757L3.83924 7.29021L3.74405 10.5733L1.50498 10.8389C1.52506 10.593 1.49142 10.3537 1.45857 10.1218C1.42962 9.91581 1.39963 9.70276 1.40876 9.49025C1.43353 8.91811 1.66954 7.56656 1.81062 6.98785C1.97726 6.3038 2.43024 5.55198 2.75621 5.04604L2.76326 5.03527L2.7643 5.02239C2.77238 4.93439 2.76456 4.88448 2.73848 4.85559C2.72414 4.83956 2.70458 4.83089 2.6832 4.83089C2.62973 4.83089 2.58279 4.88264 2.51682 4.96145C2.50925 4.97064 2.50195 4.97931 2.49543 4.98693C1.75873 5.84068 1.3313 6.8657 1.22517 8.03415C1.0361 10.1115 1.06974 12.2871 1.10208 14.3913C1.1146 15.208 1.12763 16.0525 1.12659 16.8658C1.12659 17.0408 1.13259 17.2323 1.13911 17.4353C1.15215 17.8462 1.16571 18.271 1.12789 18.6001C1.09895 18.8502 1.02932 18.8791 0.97951 18.8791C0.949521 18.8791 0.913011 18.8683 0.870765 18.8468C0.905188 18.6435 0.863202 18.4438 0.822781 18.2505C0.794877 18.1178 0.768538 17.9925 0.768277 17.873C0.766713 17.32 0.759672 16.7316 0.75237 16.1085C0.718208 13.2381 0.6757 9.66572 1.17588 7.16622C1.2622 6.73462 1.43171 6.31405 1.59574 5.9074C1.68649 5.68254 1.78063 5.45032 1.85913 5.21889Z" fill="white"/>
</svg>
