<svg width="20" height="26" viewBox="0 0 20 26" fill="none" xmlns="http://www.w3.org/2000/svg">
<path d="M13.3865 14.7261C13.3805 14.8195 13.317 14.8746 13.3341 14.9731C13.359 15.1166 13.6842 15.6226 13.8181 15.6713C13.879 15.6937 13.9548 15.6827 14.0176 15.7085C14.0731 15.7314 14.1079 15.801 14.1638 15.8145C14.2364 15.8325 14.3437 15.7462 14.4138 15.8325C14.4839 15.9187 14.4255 16.1843 14.4949 16.2862L19.5744 24.0868L19.9173 24.2089L19.9119 24.2696C19.8563 24.2013 19.7686 24.184 19.683 24.1913C19.7935 24.3536 19.7654 24.5003 19.5419 24.4732C19.5362 24.4679 19.529 24.3625 19.5249 24.3407C19.5211 24.3209 19.5365 24.3124 19.5021 24.3171L18.5948 24.9537L18.7381 25.0186L18.6592 25.3059C18.6762 25.3109 18.6952 25.3213 18.7128 25.321C18.8057 25.3184 19.0841 25.1205 19.1741 25.0595C19.4503 24.8719 19.7206 24.6837 19.9002 24.3999C19.9103 24.3842 19.899 24.3719 19.9356 24.3798C19.9435 24.5764 20.017 24.7498 19.9968 24.9518C19.9315 25.6076 18.9525 26.2191 18.3472 25.9236C18.2617 25.8817 18.1717 25.782 18.0849 25.7448C17.9368 25.6813 17.7736 25.7647 17.773 25.5198C17.773 25.4286 17.8184 25.3376 17.8137 25.2454L12.7563 17.2334C12.6891 17.1799 12.5555 17.1809 12.5066 17.1204C12.4122 17.0034 12.5571 16.9168 12.5637 16.8042C12.5672 16.7463 12.5325 16.6824 12.5347 16.6192C12.5378 16.5178 12.6152 16.5018 12.5978 16.369C12.5858 16.2774 12.3453 15.8693 12.2761 15.7934C12.1767 15.6846 12.0766 15.6937 11.9674 15.6295C11.8329 15.5508 11.9576 15.4281 11.9298 15.3214C11.9187 15.2786 11.6516 14.9189 11.621 14.9042L11.5898 14.9035C10.7812 15.3205 9.89818 15.609 8.99209 15.7286C3.66477 16.4307 -0.808857 11.7936 0.123754 6.51294C0.73434 3.05557 3.63478 0.371987 7.1477 0.0371691C12.2824 -0.452156 16.5051 3.96153 15.7673 9.05303C15.48 11.0364 14.4129 12.844 12.8532 14.0898C12.9476 14.3582 13.1118 14.6159 13.3865 14.7261ZM7.51519 0.198914C1.84407 0.461041 -1.60413 6.6728 1.15739 11.6372C3.88988 16.5493 10.844 16.9905 14.1735 12.4494C18.03 7.19013 14.0087 -0.100975 7.51519 0.198914ZM12.9142 14.7871L12.5732 14.3006L12.0482 14.6568C12.0428 14.6788 12.1587 14.94 12.1764 14.9564C12.2029 14.9813 12.272 14.9709 12.3042 14.9904C12.3336 15.0083 12.3383 15.1131 12.4021 15.1185L12.9142 14.7871ZM12.3149 15.4322L13.3255 14.7959C13.3625 14.7497 13.2472 14.6552 13.1942 14.6801C12.8877 14.8554 12.5912 15.047 12.314 15.266C12.2824 15.3176 12.3017 15.379 12.3153 15.4322H12.3149ZM13.5926 15.8878L13.1784 15.3485C13.1418 15.2572 13.2845 15.1952 13.2056 15.0864C13.139 14.9948 13.0288 15.0587 12.9508 15.0989C12.792 15.1814 12.6398 15.3274 12.4889 15.4262L12.9931 16.2337L13.5923 15.8875L13.5926 15.8878ZM13.3877 16.1714H13.6324C13.6441 16.1714 13.6444 16.1865 13.6766 16.1701C13.6946 16.161 13.8787 16.025 13.8856 16.014C13.8951 15.9989 13.8597 15.7988 13.837 15.7941L13.1115 16.2343C13.0553 16.2828 13.0455 16.3262 13.0723 16.3957C13.1112 16.4665 13.3278 16.3882 13.3802 16.3448L13.3877 16.1717V16.1714ZM13.64 16.4228H13.3953C13.3896 16.4228 13.3732 16.4017 13.3571 16.4143C13.2665 16.5021 13.0771 16.4788 13.1191 16.6428C13.15 16.644 13.1993 16.6317 13.2116 16.6686L13.2138 16.863L14.3106 16.1399L14.3096 16.1078C14.0795 16.009 13.8427 16.0801 13.6479 16.2183L13.64 16.4225V16.4228ZM18.6434 25.4667L18.6731 25.5362C18.7031 25.5497 18.7567 25.5016 18.8063 25.5598C18.8505 25.6111 18.8151 25.6479 18.823 25.6869C18.8407 25.775 18.948 25.6948 19.0106 25.7011C19.0778 25.7077 19.1649 25.798 19.2473 25.7942C19.4188 25.7867 19.6855 25.4607 19.8055 25.3436L19.7297 24.7416L18.6431 25.4667H18.6434Z" fill="white"/>
</svg>
