<?xml version="1.0" encoding="UTF-8"?>
<svg id="Layer_2" data-name="Layer 2" xmlns="http://www.w3.org/2000/svg" viewBox="0 0 604.17 118.96">
  <g id="Layer_1-2" data-name="Layer 1">
    <g>
      <path d="M0,109.76l8.25-17.76c7.61,4.92,19.19,8.25,29.66,8.25,11.42,0,15.7-3.01,15.7-7.77,0-13.96-51.55.32-51.55-33.79,0-16.18,14.59-27.6,39.5-27.6,11.74,0,24.74,2.7,32.83,7.45l-8.25,17.61c-8.41-4.76-16.81-6.34-24.59-6.34-11.1,0-15.86,3.49-15.86,7.93,0,14.59,51.55.48,51.55,34.1,0,15.86-14.75,27.12-40.29,27.12-14.43,0-29.03-3.96-36.96-9.2Z"/>
      <path d="M168.61,68.84v48.85h-24.74v-45.05c0-13.8-6.34-20.14-17.29-20.14-11.9,0-20.46,7.3-20.46,23v42.19h-24.74V32.36h23.63v9.99c6.66-7.3,16.66-11.26,28.23-11.26,20.14,0,35.37,11.74,35.37,37.75Z"/>
      <path d="M255.37,69v48.7h-23.16v-10.63c-4.6,7.77-13.48,11.9-26.01,11.9-19.99,0-31.88-11.1-31.88-25.85s10.63-25.54,36.64-25.54h19.67c0-10.63-6.34-16.81-19.67-16.81-9.04,0-18.4,3.01-24.59,7.93l-8.88-17.29c9.36-6.66,23.16-10.31,36.8-10.31,26.01,0,41.08,12.05,41.08,37.91ZM230.63,90.73v-8.72h-16.97c-11.58,0-15.23,4.28-15.23,9.99,0,6.19,5.23,10.31,13.96,10.31,8.25,0,15.39-3.81,18.24-11.58Z"/>
      <path d="M321.67,113.57c-5.08,3.65-12.53,5.39-20.14,5.39-20.14,0-31.88-10.31-31.88-30.61v-35.05h-13.17v-19.03h13.17V13.48h24.74v20.78h21.25v19.03h-21.25v34.74c0,7.3,3.96,11.26,10.63,11.26,3.65,0,7.3-1.11,9.99-3.17l6.66,17.45Z"/>
      <path d="M315.49,75.03c0-25.7,19.83-43.94,47.58-43.94,17.92,0,32.04,7.77,38.23,21.73l-19.19,10.31c-4.6-8.09-11.42-11.74-19.19-11.74-12.53,0-22.36,8.72-22.36,23.63s9.83,23.63,22.36,23.63c7.77,0,14.59-3.49,19.19-11.74l19.19,10.47c-6.19,13.64-20.3,21.57-38.23,21.57-27.76,0-47.58-18.24-47.58-43.94Z"/>
      <path d="M491.07,68.84v48.85h-24.74v-45.05c0-13.8-6.34-20.14-17.29-20.14-11.9,0-20.46,7.3-20.46,23v42.19h-24.74V0h24.74v41.24c6.66-6.66,16.18-10.15,27.12-10.15,20.14,0,35.37,11.74,35.37,37.75Z"/>
      <path d="M604.17,0l-23.47,117.69h-23.47l1.74-8.57c-6.82,6.19-15.54,9.83-26.17,9.83-19.83,0-36.8-13.96-36.8-38.23,0-28.71,20.78-49.65,47.11-49.65,12.37,0,22.05,4.12,27.6,12.53l8.72-43.62h24.74ZM565.47,70.42c0-11.58-7.14-18.88-19.51-18.88-14.59,0-25.06,11.42-25.06,28.08,0,11.58,7.14,18.88,19.51,18.88,14.59,0,25.06-11.42,25.06-28.08Z"/>
    </g>
  </g>
</svg>