<?xml version="1.0" encoding="UTF-8"?>
<svg id="Layer_1" data-name="Layer 1" xmlns="http://www.w3.org/2000/svg" viewBox="0 0 18 24">
  <path d="M17.76,18.49c-.07-.08-.14-.15-.16-.26-.16-.87-.08-1.92,0-2.94.05-.57.09-1.11.09-1.6,0-.43,0-.86,0-1.28,0-.87,0-1.78,0-2.64-.02-1.36-.28-2.44-.59-3.62-.21-.77-.86-1.67-1.79-2.45-.9-.76-1.91-1.28-2.7-1.4-.27-.04-.64-.06-1.02-.08-.91-.04-2.04-.09-2.51-.52-.02-.02-.03-.03-.04-.04,0,0,0,0-.01,0,0,0,0,0,.01-.01.01,0,.03-.02.04-.04.08-.07.16-.12.22-.17.21-.15.35-.24.34-.7-.01-.54-.34-.73-.65-.73-.26,0-.53.13-.71.33-.16.19-.24.43-.2.67.02.13.09.24.16.34.05.07.1.14.09.19-.04.45-.75.5-1.31.53-.21.01-.4.03-.55.06-.51.11-1.96.46-2.35.66-.43.22-.93.58-1.34.95-.35.32-.8.82-.94,1.32l-.02.09s-.04-.02-.06-.02c-.07,0-.13.08-.19.19,0,.01-.02.03-.02.03h0c-.13.18-.3.43-.39.62-.67,1.49-.63,3.97-.6,5.96,0,.44.01.85.01,1.22,0,.21-.05.46-.1.7-.05.26-.1.52-.1.76,0,.36.04.86.09,1.38.09,1.06.19,2.25,0,2.88-.01.04-.07.1-.14.16-.2.19-.53.51-.2,1.03l.02.02h1.15c-.24.22-.44.54-.56.92-.13.42-.15.88-.05,1.25.15.55.53.88,1.07.94.08,0,.17.01.24.01.72,0,1.08-.36,1.24-.65.32-.57.25-1.45-.16-2.18l1.47.08c-.12.61.06,1,.24,1.23.24.31.63.49,1.03.49.35,0,.68-.15.88-.4.17-.21.34-.59.23-1.22l4.57.53c-.04.12-.11.23-.18.34-.1.14-.2.29-.23.49-.12.67-.04,1.24.24,1.61.21.28.52.44.92.48.09,0,.17.01.26.01.56,0,1-.21,1.28-.61.37-.53.42-1.35.15-2.18.02,0,.03,0,.05,0,.2,0,.49-.15.68-.25.03-.02.07-.04.1-.05-.07.36.02.73.25,1.03.26.34.66.54,1.07.54.26,0,.51-.08.73-.24.52-.38.89-1.12.58-1.82-.05-.12-.14-.2-.22-.27-.1-.09-.18-.17-.2-.29.05-.02.11-.03.18-.05.34-.1.76-.22.82-.48.1-.51-.06-.69-.2-.86ZM4.94,20.54h.35c.04.55.24.61.32.61.2,0,.37-.29.42-.7h.53c.13.46,0,.76-.12.94-.18.25-.48.4-.8.4-.25,0-.47-.1-.6-.28-.17-.22-.2-.56-.1-.97ZM2.04,22.69c-.26,0-.52-.09-.77-.27-.46-.32-.53-.74-.24-1.35.04-.1.36-.53.47-.56l.18,1.47h.05c.72-.04.7-.86.69-1.4,0-.05,0-.09,0-.14.57.18.87.61.8,1.15-.07.54-.53,1.09-1.17,1.09ZM8.76.3s.03,0,.04,0c.23,0,.4.27.42.52,0,.09,0,.39-.33.44-.28,0-.44-.26-.45-.5-.01-.19.07-.42.32-.45ZM8.96,2.11c-.08.15-.15.32-.15.52l-.6-.07.14-.41.6-.03ZM12.27,21.25c.02-.14.12-.16.16-.16.04,0,.08.02.11.04.02.12-.1,1-.19,1.31-.13-.3-.12-.92-.08-1.19ZM3.76,17.77v-.03s0-.03,0-.05c0-.06.01-.12-.02-.16-.02-.02-.05-.03-.08-.03-.02,0-.05,0-.09.01-.11.03-.38.16-.71.32-.51.25-1.21.6-1.43.6,0,0-.01,0-.02,0v-6.56s.05-.06.12-.09c.38-.14.89-.22,1.39-.29.33-.05.65-.1.92-.16v6.39s0,.02,0,.02c.12.12.24.17.37.17.12,0,.24-.05.36-.09.15-.06.31-.12.51-.12,0,0,.02,0,.02,0,.72.02,1.49.1,2.22.18.74.08,1.5.16,2.22.18.01,0,.02,0,.03,0,.14,0,.28-.02.44-.04.17-.02.34-.05.51-.05.03,0,.06,0,.09,0,.31.02.62.08.93.14.37.08.75.15,1.13.15.1,0,.19,0,.28-.01,0,.18-.02.36-.04.54-.05.41-.1.84.1,1.25v.02h-.02c-.07,0-.14,0-.21,0-.75-.04-1.52-.13-2.26-.22-1.06-.12-2.16-.25-3.24-.25-.25,0-.5,0-.73.02-1.55-.34-3.17-.35-4.74-.36-.18,0-.37,0-.55,0l.3-.4,2.18-1.06ZM1.49,11.39c0-.09.05-.11.17-.15.01,0,.02,0,.03-.01.23-.08,1.81-.38,2.2-.38.01,0,.03,0,.03,0v.19l-2.44.35ZM8.37,4.02c-.07.02-.15.02-.25.02-.18,0-.4-.03-.62-.05-.22-.03-.45-.05-.64-.05-.24,0-.4.04-.51.12.35-.35.99-.81,1.28-.89.03,0,.05-.01.08-.01.09,0,.18.04.28.08.11.04.22.09.35.09.03,0,.06,0,.09,0l-.08.71ZM6.28,4.14c-.1.14-.1.35,0,.63v.04s4.78,0,4.78,0h.01c.24-.18.3-.43.24-.61-.05-.17-.2-.28-.39-.28-.06,0-.12.01-.19.03-.07.02-.13.08-.17.13-.04.04-.07.08-.1.09,0,0,0,0-.02,0-.23,0-1.14-.09-1.32-.13v-.71h.02c.18,0,.28-.14.36-.25.05-.07.09-.14.15-.14.17,0,.93.31,1.11.41,1.22.69,1.9,2.32,2.13,2.99.18.53.18.9.18,1.34,0,.22,0,.46.02.72.22,2.43.13,4.98,0,7.38-.01.23,0,.46,0,.69,0,.43.02.88-.1,1.31-.26.09-.54.13-.86.13-.49,0-1-.11-1.49-.21-.37-.08-.73-.15-1.08-.19-.24-.02-.51-.03-.81-.03-.32,0-.66.01-.98.02-.32.01-.65.02-.97.02-.18,0-.34,0-.49-.01-.18,0-.36-.04-.56-.08-.23-.04-.47-.08-.7-.08-.14,0-.25.01-.36.04,0-.11-.03-.22-.05-.32-.02-.1-.04-.19-.05-.29-.05-.75.02-1.53.09-2.29.05-.54.1-1.09.1-1.63,0-.6-.01-1.19-.03-1.76-.07-2.39-.13-4.65,1.42-6.82.03-.04.08-.1.13-.15,0,0,0,0,0,.01ZM15.09,11.17c.5-.15,1.06-.33,1.44-.33.09,0,.17.01.23.03.08.03.12.08.12.16l-2.7.62v-.24c.24-.04.57-.14.91-.24ZM14.98,4.69c1.31,1.46,1.61,2.79,1.71,4.89,0,.03,0,.06,0,.1.02.25.04.68-.1.82l-2.38.44c0-.28-.06-.56-.12-.83-.05-.21-.09-.42-.1-.62-.02-.32-.04-.63-.05-.93-.07-1.32-.13-2.58-.69-3.9h0s-1-1.43-1-1.43c1.09.2,2.08.73,2.74,1.47ZM13.89,19.96l.09-1.72,2.59.09h.01c.06-.06.09-.11.08-.16-.02-.08-.14-.11-.24-.12-.12-.01-.44-.03-.81-.05-.55-.03-1.36-.07-1.54-.11.03-.19-.01-.38-.05-.56-.03-.13-.05-.25-.05-.37,0-1.26.06-2.54.19-3.82.02-.18.01-.36,0-.54,0-.18-.01-.37,0-.55l2.43-.63.17,1.72c-.26,1.44-.15,2.92-.04,4.34.02.25.04.51.06.76,0,.11-.02.19-.05.26-.05.15-.07.26.18.38-.16.16-.39.29-.72.41-1.2.45-2.19.7-2.97.75l.65-.09ZM13.49,7.04c0,.21,0,.43.03.63.3,2.44.21,4.68.12,7.06-.01.28-.02.57-.03.86-.02.67-.01,1.36,0,2.02.01.62.02,1.27,0,1.9-.03.16-.09.19-.2.19-.02,0-.04,0-.06,0,.03-.7.05-1.41.07-2.1,0-.24.01-.49.02-.73.02-.67.05-1.37.07-2.04.13-3.07.26-6.25-.46-9.16-.42-1.71-2.29-2.85-3.86-3.2.02-.08.08-.16.31-.16.38,0,.99.23,1.27.36,1.09.5,2.38,2.36,2.64,3.47.06.28.07.59.08.89ZM6.93,3.14c-.09.06-.19.12-.27.2-.88.78-1.48,1.67-1.85,2.74-.31.9-.46,1.96-.49,3.33,0,.3.04.63.08.94.04.29.08.6.08.87,0,.64-.05,1.28-.09,1.95-.05.73-.11,1.49-.1,2.25,0,.22.02.44.05.66.05.47.09.96-.05,1.44-.26-.5-.19-1.1-.12-1.69.03-.24.05-.47.06-.69,0-.84-.02-1.68-.06-2.5-.02-.44-.03-.89-.05-1.34,0-.03.02-.05.07-.09.11-.08.27-.21.1-.62-.3-.74-.32-1.92-.06-3.24.25-1.27.71-2.43,1.24-3.12.12-.15,1.01-1.12,1.08-1.17.11-.07.33-.12.66-.13-.08.08-.18.14-.28.21ZM17.42,11.31c0,.22-.05.47-.1.71-.04.22-.09.44-.1.66-.03.75.01,1.53.06,2.29.05.85.09,1.73.04,2.55,0,.03,0,.07,0,.11-.02.32-.05.91-.31.91-.01,0-.02,0-.03,0,0-.43.02-.86.04-1.28.03-.78.05-1.58.05-2.37v-.41c-.01-.73-.02-1.48-.01-2.23,0-.11-.02-.22-.04-.33-.03-.15-.06-.32-.04-.49,0-.07.04-.09.09-.11.04-.02.09-.05.12-.12.17-.39-.07-.55-.21-.65-.03-.02-.08-.06-.09-.07-.07-.26-.02-.72.03-1.17.04-.38.09-.78.06-1.08-.06-.66-.7-2.39-1.05-2.98-.71-1.18-1.68-1.69-3.01-2.13-.22-.07-.45-.13-.67-.18-.44-.1-.9-.21-1.24-.45.05,0,.1,0,.14,0,1.38,0,2.92.6,4.24,1.65,1.8,1.44,2.05,5.12,2.04,7.19ZM9.64,4.47l-1.77-.07.76-.12v-.04c.03-.14.03-.29.02-.43,0-.08,0-.17,0-.25,0-.03,0-.06,0-.1,0-.06-.01-.14,0-.17,0,0,0,0,.02,0,.01,0,.02,0,.04,0,.03.03.02.22.01.34-.01.31-.03.66.17.75h.01s1.07,0,1.07,0l-.33.08ZM1.69,19.51c.16,0,.3,0,.43.01,3.04.2,6.39.47,10.23.82.2.02,1.01.13,1.16.17v.27c-.09.01-.2.02-.31.02-.34,0-.68-.06-1.01-.11-.24-.04-.49-.08-.74-.1-3.72-.28-6.59-.5-9.32-.73-.21-.02-.43-.05-.64-.09-.3-.05-.6-.1-.91-.1-.06,0-.12,0-.17,0v-.16c.08,0,.17,0,.26,0,.17,0,.34,0,.51,0,.17,0,.34,0,.51,0ZM1.86,21.61v-1.54h.17c.01.45-.02.94-.09,1.44,0,.04,0,.07,0,.1h0s-.04,0-.07,0ZM11.38,21.91c.1-.24.28-.43.51-.54-.02.52,0,1.13.22,1.36.06.06.13.09.21.09.04,0,.08,0,.12-.02.11-.04.32-.48.34-.56.04-.12.05-.28.07-.44.03-.38.07-.65.27-.65.04,0,.09.01.14.03.05.04.35.34.37.37.38.5.3.92.17,1.19-.23.46-.8.79-1.36.79-.28,0-.8-.09-1.05-.68-.13-.3-.13-.64,0-.93ZM13.93,20.79s-.02,0-.02,0l.04-.38,3.65-1.41c0,.09,0,.18-.04.26-.08.08-1.09.58-1.29.66-.06.02-.12.05-.19.08-.57.24-1.44.61-1.88.74-.08.02-.17.05-.27.05ZM15.99,20.96l-.1.06v-.68s.24-.07.24-.07l-.14.69ZM15.51,20.57c0,.25.06.51.15.74,0,.01,0,.03.01.06.01.07.04.18.15.18.03,0,.05,0,.08-.02.35-.15.46-1,.45-1.35.49.09.7.47.74.78.04.33-.11.79-.63.98-.19.07-.37.1-.54.1-.41,0-.74-.21-.83-.53-.09-.32.07-.67.43-.93ZM1.86,5.22v-.02s0-.02,0-.02c0,0,0,0,0,0l.08-.07c.25-.2.47-.43.69-.65.31-.31.62-.63.99-.88.57-.39,1.87-1.02,2.49-1.1.11-.01.24-.02.4-.02.17,0,.35,0,.52.02.17,0,.35.02.53.02.09,0,.18,0,.25,0l-.03.18c-.32.05-.65.08-.97.1-.46.03-.94.07-1.41.19-.45.12-1.51.55-1.85.8-.23.17-.79.74-.75,1.05v.1s.09-.07.09-.07c.78-.75,1.73-1.24,2.88-1.51l-1.34,1.9-.59,2.07-.1,3.28-2.24.27c.02-.25-.01-.49-.05-.72-.03-.21-.06-.42-.05-.63.02-.57.26-1.92.4-2.5.17-.68.62-1.44.95-1.94h0s0-.02,0-.02c0-.09,0-.14-.03-.17-.01-.02-.03-.02-.06-.02-.05,0-.1.05-.17.13,0,0-.01.02-.02.03-.74.85-1.16,1.88-1.27,3.05-.19,2.08-.16,4.25-.12,6.36.01.82.03,1.66.02,2.47,0,.17,0,.37.01.57.01.41.03.84-.01,1.16-.03.25-.1.28-.15.28-.03,0-.07-.01-.11-.03.03-.2,0-.4-.05-.6-.03-.13-.05-.26-.05-.38,0-.55,0-1.14-.02-1.76-.03-2.87-.08-6.44.42-8.94.09-.43.26-.85.42-1.26.09-.22.18-.46.26-.69Z"/>
</svg>